<mxfile host="65bd71144e">
    <diagram id="mxjyKaebKFIj2qXZBUSA" name="Page-1">
        <mxGraphModel dx="840" dy="462" grid="1" gridSize="10" guides="1" tooltips="1" connect="1" arrows="1" fold="1" page="1" pageScale="1" pageWidth="850" pageHeight="1100" math="0" shadow="0">
            <root>
                <mxCell id="0"/>
                <mxCell id="1" parent="0"/>
                <mxCell id="6" style="edgeStyle=none;html=1;startArrow=classic;startFill=1;" edge="1" parent="1" source="2" target="3">
                    <mxGeometry relative="1" as="geometry"/>
                </mxCell>
                <mxCell id="2" value="VM1&lt;br&gt;(Active)" style="shadow=0;dashed=0;html=1;strokeColor=none;fillColor=#4495D1;labelPosition=center;verticalLabelPosition=bottom;verticalAlign=top;align=center;outlineConnect=0;shape=mxgraph.veeam.vm_linux;" vertex="1" parent="1">
                    <mxGeometry x="220" y="210" width="57.2" height="55.2" as="geometry"/>
                </mxCell>
                <mxCell id="3" value="VM2&lt;br&gt;(Passive)" style="shadow=0;dashed=0;html=1;strokeColor=none;fillColor=#4495D1;labelPosition=center;verticalLabelPosition=bottom;verticalAlign=top;align=center;outlineConnect=0;shape=mxgraph.veeam.vm_linux;" vertex="1" parent="1">
                    <mxGeometry x="410" y="120" width="57.2" height="55.2" as="geometry"/>
                </mxCell>
                <mxCell id="8" style="edgeStyle=none;html=1;startArrow=classic;startFill=1;" edge="1" parent="1" source="4" target="3">
                    <mxGeometry relative="1" as="geometry"/>
                </mxCell>
                <mxCell id="4" value="VM3&lt;br&gt;(Active)" style="shadow=0;dashed=0;html=1;strokeColor=none;fillColor=#4495D1;labelPosition=center;verticalLabelPosition=bottom;verticalAlign=top;align=center;outlineConnect=0;shape=mxgraph.veeam.vm_linux;" vertex="1" parent="1">
                    <mxGeometry x="570" y="200" width="57.2" height="55.2" as="geometry"/>
                </mxCell>
                <mxCell id="9" style="edgeStyle=none;html=1;startArrow=none;startFill=0;" edge="1" parent="1" source="5" target="3">
                    <mxGeometry relative="1" as="geometry"/>
                </mxCell>
                <mxCell id="13" value="Tasks" style="edgeLabel;html=1;align=center;verticalAlign=middle;resizable=0;points=[];" vertex="1" connectable="0" parent="9">
                    <mxGeometry x="-0.1686" y="1" relative="1" as="geometry">
                        <mxPoint as="offset"/>
                    </mxGeometry>
                </mxCell>
                <mxCell id="10" style="edgeStyle=none;html=1;startArrow=none;startFill=0;" edge="1" parent="1" source="5" target="2">
                    <mxGeometry relative="1" as="geometry"/>
                </mxCell>
                <mxCell id="12" value="Tasks" style="edgeLabel;html=1;align=center;verticalAlign=middle;resizable=0;points=[];" vertex="1" connectable="0" parent="10">
                    <mxGeometry x="-0.2099" y="-1" relative="1" as="geometry">
                        <mxPoint as="offset"/>
                    </mxGeometry>
                </mxCell>
                <mxCell id="11" style="edgeStyle=none;html=1;startArrow=none;startFill=0;" edge="1" parent="1" source="5" target="4">
                    <mxGeometry relative="1" as="geometry"/>
                </mxCell>
                <mxCell id="14" value="Tasks" style="edgeLabel;html=1;align=center;verticalAlign=middle;resizable=0;points=[];" vertex="1" connectable="0" parent="11">
                    <mxGeometry x="-0.1775" y="-4" relative="1" as="geometry">
                        <mxPoint x="1" as="offset"/>
                    </mxGeometry>
                </mxCell>
                <mxCell id="5" value="Ansible controller" style="verticalLabelPosition=bottom;sketch=0;aspect=fixed;html=1;verticalAlign=top;strokeColor=none;align=center;outlineConnect=0;shape=mxgraph.citrix.desktop;" vertex="1" parent="1">
                    <mxGeometry x="401.3" y="370" width="65.9" height="72.56" as="geometry"/>
                </mxCell>
                <mxCell id="15" value="/boxydrop" style="text;html=1;align=center;verticalAlign=middle;resizable=0;points=[];autosize=1;strokeColor=none;fillColor=none;" vertex="1" parent="1">
                    <mxGeometry x="394.25" y="80" width="80" height="30" as="geometry"/>
                </mxCell>
                <mxCell id="16" value="/boxydrop" style="text;html=1;align=center;verticalAlign=middle;resizable=0;points=[];autosize=1;strokeColor=none;fillColor=none;" vertex="1" parent="1">
                    <mxGeometry x="208.6" y="170" width="80" height="30" as="geometry"/>
                </mxCell>
                <mxCell id="17" value="/boxydrop" style="text;html=1;align=center;verticalAlign=middle;resizable=0;points=[];autosize=1;strokeColor=none;fillColor=none;" vertex="1" parent="1">
                    <mxGeometry x="558.6" y="160" width="80" height="30" as="geometry"/>
                </mxCell>
                <mxCell id="19" style="edgeStyle=none;html=1;startArrow=none;startFill=0;" edge="1" parent="1" source="18" target="4">
                    <mxGeometry relative="1" as="geometry"/>
                </mxCell>
                <mxCell id="18" value="GUI&lt;br&gt;" style="sketch=0;aspect=fixed;html=1;points=[];align=center;image;fontSize=12;image=img/lib/mscae/Docker.svg;" vertex="1" parent="1">
                    <mxGeometry x="710" y="160" width="50" height="41" as="geometry"/>
                </mxCell>
            </root>
        </mxGraphModel>
    </diagram>
</mxfile>
